<?xml version="1.0" encoding="UTF-8" standalone="no"?>
<svg xmlns="http://www.w3.org/2000/svg" width="1920" height="1080"><path d="M-400,-521L92,-466L435,-481Z" fill="#e7f6bd" stroke="#e7f6bd" stroke-width="1.51"/><path d="M435,-481L790,-369L1614,-425Z" fill="#a9d8c2" stroke="#a9d8c2" stroke-width="1.51"/><path d="M-400,-521L435,-481L1931,-544Z" fill="#bbe2c4" stroke="#bbe2c4" stroke-width="1.51"/><path d="M435,-481L1614,-425L1931,-544Z" fill="#a1c6c5" stroke="#a1c6c5" stroke-width="1.51"/><path d="M1983,1371L1448,1597L2233,1457Z" fill="#233d92" stroke="#233d92" stroke-width="1.51"/><path d="M1796,325L1974,712L2404,602Z" fill="#3e76ae" stroke="#3e76ae" stroke-width="1.51"/><path d="M2404,602L1974,712L2410,1115Z" fill="#275e9e" stroke="#275e9e" stroke-width="1.51"/><path d="M1974,712L1926,1048L2410,1115Z" fill="#2a58a5" stroke="#2a58a5" stroke-width="1.51"/><path d="M1796,325L2404,602L2414,197Z" fill="#4e76a3" stroke="#4e76a3" stroke-width="1.51"/><path d="M2003,-53L2414,197L2426,-101Z" fill="#758199" stroke="#758199" stroke-width="1.51"/><path d="M2414,197L2404,602L2461,-281Z" fill="#5a758e" stroke="#5a758e" stroke-width="1.51"/><path d="M2404,602L2410,1115L2461,-281Z" fill="#396a92" stroke="#396a92" stroke-width="1.51"/><path d="M2003,-53L2426,-101L2461,-281Z" fill="#818597" stroke="#818597" stroke-width="1.51"/><path d="M1931,-544L2003,-53L2461,-281Z" fill="#948ea4" stroke="#948ea4" stroke-width="1.51"/><path d="M2426,-101L2414,197L2461,-281Z" fill="#757e8c" stroke="#757e8c" stroke-width="1.51"/><path d="M1983,1371L2233,1457L2410,1115Z" fill="#22388f" stroke="#22388f" stroke-width="1.51"/><path d="M1926,1048L1983,1371L2410,1115Z" fill="#26459c" stroke="#26459c" stroke-width="1.51"/><path d="M2003,-53L1796,325L2414,197Z" fill="#6b84a9" stroke="#6b84a9" stroke-width="1.51"/><path d="M1691,601L1926,1048L1974,712Z" fill="#2a73b1" stroke="#2a73b1" stroke-width="1.51"/><path d="M1796,325L1691,601L1974,712Z" fill="#3983b4" stroke="#3983b4" stroke-width="1.51"/><path d="M1926,1048L1544,1269L1983,1371Z" fill="#2552a2" stroke="#2552a2" stroke-width="1.51"/><path d="M1544,1269L1448,1597L1983,1371Z" fill="#274da0" stroke="#274da0" stroke-width="1.51"/><path d="M1440,-78L1656,231L2003,-53Z" fill="#7b9fb2" stroke="#7b9fb2" stroke-width="1.51"/><path d="M1614,-425L1440,-78L2003,-53Z" fill="#8fa7b1" stroke="#8fa7b1" stroke-width="1.51"/><path d="M1656,231L1796,325L2003,-53Z" fill="#6892af" stroke="#6892af" stroke-width="1.51"/><path d="M1931,-544L1614,-425L2003,-53Z" fill="#98a0ad" stroke="#98a0ad" stroke-width="1.51"/><path d="M1691,601L1544,1269L1926,1048Z" fill="#236baf" stroke="#236baf" stroke-width="1.51"/><path d="M790,-369L1030,-269L1614,-425Z" fill="#a2cebd" stroke="#a2cebd" stroke-width="1.51"/><path d="M1054,1094L1544,1269L1691,601Z" fill="#227db7" stroke="#227db7" stroke-width="1.51"/><path d="M1656,231L1691,601L1796,325Z" fill="#4c90b5" stroke="#4c90b5" stroke-width="1.51"/><path d="M1307,315L1010,688L1691,601Z" fill="#34a4c2" stroke="#34a4c2" stroke-width="1.51"/><path d="M1010,688L1054,1094L1691,601Z" fill="#2697c1" stroke="#2697c1" stroke-width="1.51"/><path d="M1656,231L1307,315L1691,601Z" fill="#4c9bb9" stroke="#4c9bb9" stroke-width="1.51"/><path d="M1440,-78L1307,315L1656,231Z" fill="#6baab9" stroke="#6baab9" stroke-width="1.51"/><path d="M730,1538L430,1606L1125,1611Z" fill="#457097" stroke="#457097" stroke-width="1.51"/><path d="M1030,-269L1440,-78L1614,-425Z" fill="#97c0ba" stroke="#97c0ba" stroke-width="1.51"/><path d="M-143,1410L-309,1385L430,1606Z" fill="#8a8aa0" stroke="#8a8aa0" stroke-width="1.51"/><path d="M1125,97L1307,315L1440,-78Z" fill="#73b8bd" stroke="#73b8bd" stroke-width="1.51"/><path d="M1125,1611L1448,1597L1544,1269Z" fill="#265ca0" stroke="#265ca0" stroke-width="1.51"/><path d="M1054,1094L1125,1611L1544,1269Z" fill="#306dae" stroke="#306dae" stroke-width="1.51"/><path d="M1030,-269L1125,97L1440,-78Z" fill="#8ec4bc" stroke="#8ec4bc" stroke-width="1.51"/><path d="M1125,97L918,259L1307,315Z" fill="#66bbbe" stroke="#66bbbe" stroke-width="1.51"/><path d="M918,259L1010,688L1307,315Z" fill="#4eb4c2" stroke="#4eb4c2" stroke-width="1.51"/><path d="M1010,688L750,1031L1054,1094Z" fill="#389abe" stroke="#389abe" stroke-width="1.51"/><path d="M750,1031L730,1538L1054,1094Z" fill="#4684b2" stroke="#4684b2" stroke-width="1.51"/><path d="M1030,-269L795,38L1125,97Z" fill="#90cebd" stroke="#90cebd" stroke-width="1.51"/><path d="M795,38L918,259L1125,97Z" fill="#79c8be" stroke="#79c8be" stroke-width="1.51"/><path d="M1054,1094L730,1538L1125,1611Z" fill="#3e73ab" stroke="#3e73ab" stroke-width="1.51"/><path d="M918,259L644,714L1010,688Z" fill="#4cb8c3" stroke="#4cb8c3" stroke-width="1.51"/><path d="M644,714L750,1031L1010,688Z" fill="#46a9c0" stroke="#46a9c0" stroke-width="1.51"/><path d="M790,-369L795,38L1030,-269Z" fill="#a1d6bb" stroke="#a1d6bb" stroke-width="1.51"/><path d="M795,38L414,380L918,259Z" fill="#7acabc" stroke="#7acabc" stroke-width="1.51"/><path d="M414,380L644,714L918,259Z" fill="#67c2bf" stroke="#67c2bf" stroke-width="1.51"/><path d="M430,1606L730,1538L750,1031Z" fill="#597daa" stroke="#597daa" stroke-width="1.51"/><path d="M279,980L430,1606L750,1031Z" fill="#668faf" stroke="#668faf" stroke-width="1.51"/><path d="M435,-481L471,11L790,-369Z" fill="#b7e2b7" stroke="#b7e2b7" stroke-width="1.51"/><path d="M471,11L414,380L795,38Z" fill="#8fd2ba" stroke="#8fd2ba" stroke-width="1.51"/><path d="M790,-369L471,11L795,38Z" fill="#a4d9b9" stroke="#a4d9b9" stroke-width="1.51"/><path d="M644,714L279,980L750,1031Z" fill="#5da8bb" stroke="#5da8bb" stroke-width="1.51"/><path d="M414,380L276,618L644,714Z" fill="#73c4bf" stroke="#73c4bf" stroke-width="1.51"/><path d="M276,618L279,980L644,714Z" fill="#72b8bd" stroke="#72b8bd" stroke-width="1.51"/><path d="M279,980L102,1034L430,1606Z" fill="#7c96ae" stroke="#7c96ae" stroke-width="1.51"/><path d="M102,1034L-143,1410L430,1606Z" fill="#878fa9" stroke="#878fa9" stroke-width="1.51"/><path d="M101,348L414,380L471,11Z" fill="#99d6b9" stroke="#99d6b9" stroke-width="1.51"/><path d="M-144,26L101,348L471,11Z" fill="#b7e2b6" stroke="#b7e2b6" stroke-width="1.51"/><path d="M435,-481L92,-466L471,11Z" fill="#cdebb4" stroke="#cdebb4" stroke-width="1.51"/><path d="M92,-466L-144,26L471,11Z" fill="#d1edb4" stroke="#d1edb4" stroke-width="1.51"/><path d="M101,348L276,618L414,380Z" fill="#8fd0bb" stroke="#8fd0bb" stroke-width="1.51"/><path d="M101,348L-44,795L276,618Z" fill="#93cebc" stroke="#93cebc" stroke-width="1.51"/><path d="M276,618L-44,795L279,980Z" fill="#89bebb" stroke="#89bebb" stroke-width="1.51"/><path d="M-44,795L102,1034L279,980Z" fill="#8ab3b7" stroke="#8ab3b7" stroke-width="1.51"/><path d="M-400,-521L-144,26L92,-466Z" fill="#ebf7b1" stroke="#ebf7b1" stroke-width="1.51"/><path d="M-468,311L-44,795L101,348Z" fill="#a6d8ba" stroke="#a6d8ba" stroke-width="1.51"/><path d="M-144,26L-468,311L101,348Z" fill="#bbe3b6" stroke="#bbe3b6" stroke-width="1.51"/><path d="M-44,795L-278,1054L102,1034Z" fill="#94b3b6" stroke="#94b3b6" stroke-width="1.51"/><path d="M-278,1054L-143,1410L102,1034Z" fill="#93a2ae" stroke="#93a2ae" stroke-width="1.51"/><path d="M-400,-521L-517,11L-144,26Z" fill="#e7f5ba" stroke="#e7f5ba" stroke-width="1.51"/><path d="M-278,1054L-309,1385L-143,1410Z" fill="#989aad" stroke="#989aad" stroke-width="1.51"/><path d="M-541,878L-278,1054L-44,795Z" fill="#9dbcbc" stroke="#9dbcbc" stroke-width="1.51"/><path d="M-468,311L-541,878L-44,795Z" fill="#a4d0c3" stroke="#a4d0c3" stroke-width="1.51"/><path d="M-517,11L-468,311L-144,26Z" fill="#cdebbe" stroke="#cdebbe" stroke-width="1.51"/><path d="M-541,878L-309,1385L-278,1054Z" fill="#9ca9b9" stroke="#9ca9b9" stroke-width="1.51"/><path d="M-517,11L-541,878L-468,311Z" fill="#b6dfc9" stroke="#b6dfc9" stroke-width="1.51"/></svg>